<svg xmlns="http://www.w3.org/2000/svg" viewBox="0 0 372.27 372.19" xmlns:v="https://vecta.io/nano"><path d="M30.04 228.25c-4.54-.59-8.92-.41-12.73-1.81-7.08-2.59-11.03-8.31-11.11-15.86l-.02-61.11c.07-9.62 7.91-17.39 17.56-17.42h96.73c9.82.03 17.54 7.89 17.6 17.77l-.01 60.36c-.09 11.53-10.33 19.57-21.7 17.39-.61-.12-1.22-.19-2.09-.32-.06 1.21-.16 2.3-.16 3.39l-.07 83.24c-.01 2.56.73 3.54 3.2 4.4 4.93 1.71 9.9 3.6 14.39 6.21 16.8 9.8 16.82 25.66-.23 35.07-6.68 3.69-14.14 6.45-21.59 8.15-28.4 6.48-56.81 6.25-84.7-2.69-6.39-2.05-12.71-5.47-17.98-9.62-9.67-7.61-9.33-18.9-.06-27.03 5.86-5.13 12.93-7.95 20.22-10.26 1.62-.52 2.89-.82 2.88-3.08l-.09-86.61c0-.36-.19-.7-.04-.17zm12.08 18.13l.01 76.49c0 5.98 2.67 10.26 7.53 12.25 8.12 3.34 16.44-2.72 16.45-12.1l.02-88.11c0-4.47 2.17-6.92 6.01-6.91 3.83.01 5.97 2.46 5.98 6.95l.01 33 .03 55.87c.02 6.37 4.57 11.4 10.59 12.11 6.01.71 11.75-3.33 13.06-9.37.37-1.68.31-3.48.31-5.22l.01-149.98c0-1.37-.14-2.78.1-4.12.58-3.24 2.6-5.17 5.91-5.16 3.32.01 5.29 1.97 5.89 5.2.2 1.09.09 2.24.09 3.37l.02 38.25c.02 4.78 3.17 7.8 7.12 6.98 3.2-.66 4.85-3.11 4.86-7.4v-56.62c0-5.86-2-7.85-7.9-7.85-30.75-.01-61.49-.01-92.24 0-5.88 0-7.85 1.99-7.85 7.88v41.24l.03 16.5c.07 3.83 2.57 6.35 5.97 6.34 3.39-.01 5.79-2.54 5.97-6.37.07-1.37.02-2.75.02-4.12l-.01-36.75c0-3.08 1.21-5.36 4.19-6.38 2.68-.92 5.18-.15 6.54 2.22.92 1.61 1.22 3.78 1.23 5.69l.05 76.12zm-11.86 82.69c-5.01 2.67-9.93 4.83-14.34 7.76-5.14 3.41-5.04 6.99.1 10.55 3.04 2.11 6.41 3.96 9.9 5.18 27.09 9.46 54.68 9.69 82.31 3.09 7.13-1.7 14.01-5.14 20.46-8.76 4.78-2.68 4.62-6.67.02-9.77-4.56-3.07-9.66-5.33-14.86-8.12-3.23 9.77-8.8 15.91-17.94 18.24-9.3 2.37-17.11-.81-23.83-7.07-13.28 13.26-34.96 9.26-41.82-11.1zm312.02-203.09V177c4.86 1.82 9.72 3.16 14.09 5.42 4.04 2.09 8.05 4.71 11.2 7.94 6.37 6.53 6.24 15.4-.32 21.74-3.34 3.23-7.38 6.26-11.68 7.88-29.21 11.05-58.55 11.08-87.69-.35-3.62-1.42-7.06-3.86-9.95-6.51-7.9-7.23-8.13-17.28.14-24.11 4.97-4.11 11.3-6.62 17.13-9.63 1.96-1.01 4.28-1.33 6.67-2.03v-51.38h-3.39c-8.11-.25-14.25-6.22-14.32-14.31V68.17c.07-7.9 6.19-14.1 14.06-14.14l67.86.01c7.7.04 13.87 6.16 13.96 13.85v44.24c-.09 7.68-6.29 13.54-14.01 13.84-1.11.05-2.24.01-3.75.01zm-48.16 11.87v49.48c0 1.75-.5 3.76.19 5.18.95 1.94 2.55 4.26 4.39 4.86 1.63.53 4.44-.55 5.82-1.87 1.19-1.14 1.52-3.61 1.53-5.5l.1-56.23c0-1.44.17-3.06.83-4.3 1.51-2.84 4.24-3.5 7.1-2.6 2.95.93 4.08 3.26 4.07 6.4l-.03 55.85c0 1.12-.1 2.27.08 3.37.53 3.26 2.57 5.23 5.82 5.29 3.27.06 5.35-1.88 5.98-5.11.24-1.21.11-2.49.11-3.74l.01-101.21c0-1.5-.11-3.02.09-4.49.45-3.35 3.45-5.61 6.65-5.19 3.19.42 5.2 2.88 5.23 6.69l.01 25.49c-.01 2.15.53 3.76 3.05 3.73 2.55-.03 2.97-1.71 2.97-3.82l.01-40.48c.01-2.48-.95-3.69-3.53-3.68-21.62.03-43.23.04-64.85-.01-2.81-.01-3.71 1.33-3.66 3.94.09 5 .02 10 .02 14.99l.08 25.49c.02 1.14.81 2.71 1.73 3.26.76.46 2.62.08 3.3-.61.72-.72.84-2.26.85-3.44.07-8.37-.17-16.75.19-25.11.09-1.98 1.66-4.54 3.33-5.61 1.36-.87 4.6-.67 5.72.4 1.56 1.49 2.64 4.23 2.67 6.46l.14 52.12zm-12.14 51.12c-5.58 2.95-10.7 5.21-15.3 8.25-3.58 2.37-3.6 5.12-.03 7.51 4.09 2.74 8.56 5.27 13.23 6.7 19.15 5.88 38.68 6.18 58.09 1.67 6.55-1.52 12.92-4.5 18.85-7.76 4.58-2.51 4.47-5.86.08-8.69-4.43-2.86-9.39-4.9-14.53-7.51.25 17.12-16.09 26.87-30.26 16.58-14.23 10.44-30.52.17-30.13-16.75zM162.73 312.02l5.61.03c3.34.26 5.67 2.69 5.74 5.8.08 3.26-2.32 6.01-5.83 6.07-8.25.15-16.5.19-24.74 0-3.29-.08-5.28-2.26-5.35-5.59-.13-6.12-.13-12.25.02-18.37.09-3.56 2.7-5.96 5.98-5.93 3.27.02 5.69 2.43 5.93 6.01.1 1.58.02 3.17.02 5.59l90.76-71.65c-2.95 0-4.76.08-6.55-.02-3.76-.2-6.27-2.77-6.16-6.16.11-3.26 2.54-5.72 6.16-5.77l24-.01c3.55.04 5.74 2.33 5.79 5.96.09 5.87.1 11.75-.01 17.62-.07 3.83-2.57 6.35-5.97 6.35s-5.8-2.53-5.98-6.35c-.07-1.46-.01-2.92-.01-5.22l-89.76 70.86c.11.27.23.53.35.78zM72.17 66c16.4.01 29.89 13.42 29.94 29.76a30.1 30.1 0 0 1-30.25 30.23c-16.34-.07-29.72-13.54-29.74-29.96C42.1 79.47 55.59 65.99 72.17 66zm.28 12.01c-10.01-.11-18.24 7.92-18.3 17.85-.06 9.8 7.89 17.95 17.66 18.11 9.96.16 18.19-7.87 18.3-17.85.1-9.78-7.93-18.01-17.66-18.11zM312.24 0c13.26.07 23.99 10.95 23.87 24.2-.12 13.24-11.01 23.91-24.31 23.79-13.04-.12-23.68-10.91-23.68-24.03.01-13.25 10.86-24.03 24.12-23.96zm11.86 24.06c.06-6.49-5.34-11.99-11.82-12.05-6.56-.06-12.01 5.2-12.14 11.73-.14 6.69 5.32 12.25 12.01 12.23 6.54-.02 11.9-5.36 11.95-11.91z"/></svg>