<svg xmlns="http://www.w3.org/2000/svg" viewBox="0 0 384.18 281.52" xmlns:v="https://vecta.io/nano"><path d="M0 85.19l.97-2.76C4.14 71.79 13.29 64.39 24.4 64.07c10.24-.29 20.49-.16 30.74-.08 2.34.02 3.73-.5 4.96-2.78 3.8-7 10.01-9.83 17.91-10.18 8.82-.39 17.8-.61 26.37-2.46 17.57-3.79 31.66-13.61 43.06-27.46C157.33 9.1 170.07 1.98 185.58.38c20.69-2.14 37.83 5.02 51.12 20.91C249.01 36 264.22 45.87 283.11 49.4c6.94 1.3 14.14 1.61 21.23 1.61 9.08 0 15.99 3.04 20.36 11.3.49.93 2.38 1.55 3.64 1.57l28.49.08c16.55.09 27.18 10.72 27.16 27.24-.01 11.99.67 24.06-.44 35.96-1.95 20.92-13.28 36.73-29.79 49.08-10.07 7.53-21.4 12.26-33.76 14.45-1.99.35-2.91 1.13-3.68 2.97-19.08 45.88-52.82 74.47-101.34 85.27-28.31 6.3-55.15.75-80.6-12-31.46-15.76-53.52-40.39-66.61-73.03-.79-1.96-1.73-2.8-3.88-3.25-27.17-5.62-47.45-20.31-58.97-45.93-2.37-5.26-3.32-11.16-4.93-16.77L0 85.19zm71.15 3.91c0 22.2-1.57 43.55.33 64.59 3.8 41.99 24.08 74.9 60.25 97.1 21.59 13.25 45.25 20.24 70.77 17.16 62.5-7.55 108.97-58.78 110.93-123.64.52-17.23.11-34.49.11-51.74 0-.95-.18-1.9-.29-3.02-4.51 0-8.75-.02-12.99 0-15.26.09-30.1-2.19-44.37-7.75-19.3-7.52-35.38-19.4-48.31-35.55-5.07-6.33-11.57-8.92-19.55-7.5-5.93 1.06-9.68 5.2-13.38 9.58C153.97 72.82 127.63 86.56 95.64 89c-8.18.63-16.45.1-24.49.1zM57.28 76.86c-11.24 0-22.22-.2-33.2.08-5.86.15-11 5.2-11.13 11.22-.27 12.73-.8 25.54.27 38.19 1.55 18.36 12.28 31.45 27.18 41.38 6.54 4.36 13.64 7.56 21.71 9.38-7.96-33.26-2.78-66.73-4.83-100.25zM322 176.7c5.3-.38 13.69-3.71 21.54-8.93 14.79-9.83 25.56-22.77 27.15-40.99 1.12-12.89.65-25.96.3-38.93-.17-6.32-5.7-10.84-12.13-11.04-5.24-.16-10.49-.06-15.74-.06-5.46-.01-10.92 0-16.16 0-.33.66-.52.88-.52 1.1l-.1 4.12c-1.06 31.59 3.05 63.41-4.34 94.73zm-8.77-100.28c1.26-9.65-.46-12.82-10.64-12.61-6.95.14-14.03-.35-20.86-1.61-22.37-4.1-40.47-15.5-55.06-32.94-11.89-14.21-27.29-19.23-45.37-15.22-9.82 2.18-17.83 7.6-24.21 15.39-14.31 17.49-32.47 28.76-54.74 32.71-8.06 1.43-16.39 1.3-24.61 1.78-4.29.25-6.85 2-7.21 5.56-.23 2.3-.04 4.64-.04 7.64 10.19-.45 19.98-.21 29.58-1.44 27.13-3.47 49.11-16.38 66.48-37.49 14.06-17.09 36.84-17.13 50.82-.08 24.89 30.34 57.45 41.19 95.86 38.31zM186.97 223.93c-24.87-.18-53.22-6.6-80.1-19.47-2.67-1.28-5.06-3.03-4.67-6.06.27-2.06 1.64-4.83 3.32-5.63 1.86-.9 4.93-.59 6.94.34 16.87 7.8 34.38 13.32 52.79 16.01 35.93 5.24 70.36.14 103.39-14.8 1.36-.62 2.69-1.32 4.07-1.89 3.56-1.47 6.99-.28 8.57 2.92s.51 6.81-3.08 8.47c-6.44 2.98-12.95 5.89-19.6 8.34-21.42 7.9-44.09 11.79-71.63 11.77zm3.94-51.38c-27.38.04-55.15-4.26-82.34-12.42-4.78-1.44-6.9-4.49-5.81-8.44 1.04-3.78 4.6-5.3 9.48-3.83 24.53 7.36 49.55 11.45 75.18 11.85 27.8.44 55.01-3.22 81.66-11.07 1.43-.42 2.86-.91 4.32-1.2 3.97-.76 7.04 1 7.9 4.42.89 3.54-.73 6.7-4.6 7.78-9.12 2.54-18.25 5.14-27.5 7.12-18.86 4.01-37.98 5.82-58.29 5.79zm.91-44.32c-27.42-.38-54.67-2.51-81.78-6.44-2.93-.42-5.71-1.1-7.02-4.2-1.99-4.74 1.8-9.37 7.19-8.72l30.12 3.66c28.15 2.76 56.37 3.56 84.59 1.39 16.3-1.25 32.53-3.33 48.79-5.07 4.14-.44 7.18 1.53 7.75 5.19.59 3.75-1.46 6.78-5.7 7.32-14.24 1.81-28.48 3.74-42.78 4.91-13.68 1.12-27.43 1.34-41.16 1.96z"/></svg>