<svg xmlns="http://www.w3.org/2000/svg" viewBox="0 0 360.04 359.99" xmlns:v="https://vecta.io/nano"><path d="M252.17 47.99c3.54-20.96 14.37-35.78 33.58-43.79 22.61-9.43 48.53-2.06 63.39 17.6 14.59 19.28 14.43 45.88-.58 65.09-1.92 2.46-2.02 4.09-.46 6.77 7.91 13.55 11.82 28.27 11.85 43.95l-.03 93.36c-.2 27.4-11.76 49.09-34.11 64.95-5.7 4.04-11.56 7.88-17.44 11.66-1.78 1.14-2.46 2.39-2.44 4.52l.05 39.37c0 6.69-1.79 8.53-8.35 8.53H194.15c-6.31 0-8.16-1.9-8.17-8.33V321.3 318h-46.1c-5.61 0-7.37-1.61-7.99-7.09l-11.73-104.62c-.63-5.65 1.67-8.85 7.24-8.12 7.53.98 11.35-1.89 14.18-8.74 3.6-8.74 8.51-16.94 12.63-25.48 1.04-2.15 1.52-4.69 1.71-7.09.28-3.6.07-7.24.07-10.87 0-16.5.14-16.98 9.06-29.89-3.09-1.8-6.33-3.39-9.25-5.43-15.15-10.59-23.03-25.21-23.78-43.67-.14-3.49-.04-7-.04-10.5.01-6.69 1.78-8.49 8.37-8.49h81.73l30.09-.02zm53.94 246.76c5.7-3.88 11.04-7.11 15.93-10.92 16.12-12.52 25.34-29.14 25.71-49.5.61-33.23.35-66.48.05-99.72-.11-12.93-4.02-25.03-10.8-36.35-16.99 10.82-34.78 13.18-53.2 4.78-18.35-8.37-28.44-23.23-31.62-42.78H144.14c-1.89 27.93 16.55 47.7 44.23 47.72l62.24.09c4.68.05 9.52.68 13.99 2.02 16.98 5.08 28.87 20.83 29.28 38.54.24 10.33.04 20.67.04 31.36l23.94.02c10.26.13 17.95 7.83 18.08 18.11l-.03 24.74c-.25 12.31-8.32 23.39-19.91 27.33-3.14 1.07-6.49 1.5-9.89 2.25v42.31zm-162.76 11.03c1.12.07 2.2.2 3.28.2 9.24.01 18.49.29 27.72-.05 22.82-.83 39.67-11.55 48.95-32.37 15.53-34.87-9.35-65.41-41.24-63.71-15.07.81-30.21.14-45.32.14h-4.06l10.67 95.79zm7.12-107.79l34.81-.01c2.49 0 5.05.24 7.47-.21l86.46-16.19c2.23-.41 2.82-1.27 2.79-3.4l-.07-28.12c-.19-16.89-13.15-29.93-30.01-30.03l-65.61-.01c-10.52.04-18.21 7.75-18.34 18.22-.08 6.87.18 13.75-.11 20.61-.12 2.88-.8 5.94-2.05 8.53-4.83 10.1-10 20.04-15.34 30.61zm143.33 58.92c-.88.43-1.33.61-1.73.86l-37.57 22.51-55.07 32.57c-.69.41-1.39 1.49-1.39 2.26l-.06 32.67h95.84l-.02-90.87zM234.86 278l3.2-1.9 52.31-31.43c5.04-3.08 9.98-4.96 16.08-4.83 9.15.2 16.93-7.26 17.37-16.32.41-8.48.21-16.99.08-25.48-.06-3.83-2.55-5.98-6.66-6.01-9.24-.07-18.49-.04-27.73 0-1.11 0-2.23.24-3.33.44l-50.41 9.4-21.12 4.07c25.38 18.88 30.51 42.97 20.21 72.06zM347.95 54.14C348 31 329.22 12.03 306.21 12c-23.32-.03-42.17 18.73-42.24 42.04-.06 22.85 18.75 41.84 41.56 41.94 23.4.1 42.36-18.6 42.42-41.84zM15.85 185.99c-3.37 0-6.23.06-9.09-.01-4.76-.12-7.3-2.83-6.67-7.42l5.92-41.14c.55-3.67 2.82-5.39 6.88-5.41l29.98-.02h74.59c6.67 0 8.49 1.79 8.49 8.38v31.48c-.01 6.17-1.93 8.12-7.99 8.13H89.95v21.98c-.01 6.09-1.96 8-8.11 8.02H66.06c-1.29 7.65-2.24 15.29-3.91 22.78-2.57 11.48-2.17 23.07-2.19 34.67-.01 6.82-1.77 8.54-8.7 8.55-6.5 0-13-.1-19.49.04-3.31.07-5.68-1.07-7.63-3.76L8.2 250.97c-1.9-2.47-2.4-4.94-1.87-8.02l9.52-56.96zm31.14 78c1.11-11.07 1.74-21.65 3.31-32.08l9.61-57.97c.73-4.31 2.7-5.88 7.18-5.95l5.62-.01h17.07v-23.81H35.32c-.21.6-.5 1.16-.6 1.76l-15.91 96.01c-.23 1.41.24 3.27 1.07 4.44 3.74 5.31 7.66 10.49 11.66 15.6.73.94 2.11 1.86 3.24 1.92 4.22.22 8.46.09 12.21.09zm66.69-96.15v-23.66h-11.5v23.66h11.5zm-96.52-23.67l-4.24 29.64h5.01l4.89-29.64h-5.66zm53.91 35.82l-2.92 17.75h9.57v-17.75h-3.19-3.46zm12.9-139.24l.09 22.1c.05 1.62.84 3.63 1.99 4.74 9.94 9.58 12.71 23.23 6.96 35.32-5.52 11.6-18.34 18.65-30.73 16.88-13.78-1.96-23.76-11.44-25.94-25.25-1.63-10.32 1.6-19.29 9.25-26.41 1.87-1.74 2.43-3.42 2.41-5.81l-.04-42.71C47.98 8.13 55.54-.04 66.05 0c10.52.04 17.89 8.16 17.92 19.77v20.98zm-12.14-22.7c-.86-4-2.37-5.65-5.16-5.99-3.87-.48-6.68 2.43-6.69 7.11l.07 46.12c.06 4.64-1.12 7.83-5.1 10.72-8.55 6.2-9.33 18.42-2.24 26.15 7.08 7.73 19.15 7.8 26.36.17 7.19-7.61 6.5-19.82-1.87-26.21-3.42-2.61-6.08-5.13-5.12-9.98l-5.86-.28V54.15l5.55-.34v-5.64l-5.51-.38V36.11l5.47-.26v-5.71l-5.56-.33V18.05h5.66zm131.73 158.03c-8.21-.35-15.29-3.31-21.11-9.14-2.96-2.96-3.2-6.34-.74-8.95 2.47-2.63 5.79-2.55 8.96.22 9.04 7.87 17.54 7.85 26.64-.05 3.14-2.72 6.53-2.76 8.96-.11 2.33 2.55 2.12 5.8-.58 8.7-5.35 5.77-14.18 9.49-22.13 9.33zM299.19 64.3l27.92-27.93c.97-.96 1.93-2.02 3.09-2.69 2.53-1.47 5.08-1.27 7.21.82s2.33 4.62.93 7.19c-.52.96-1.35 1.78-2.14 2.57l-31.25 31.26c-4.37 4.35-7.02 4.34-11.4-.02l-14.56-14.57c-3.39-3.43-3.68-6.81-.95-9.49s6.04-2.33 9.5 1.1l11.65 11.76zM77.95 89.82c.09 6.53-5.22 12.02-11.73 12.16-6.5.14-12.07-5.16-12.24-11.64-.18-6.71 5.21-12.3 11.91-12.34 6.52-.04 11.97 5.31 12.06 11.82z"/></svg>