<svg xmlns="http://www.w3.org/2000/svg" viewBox="0 0 383.95 384.09" xmlns:v="https://vecta.io/nano"><path d="M383.95 295.5c-3.53 5.18-5.91 5.65-11.13 2.09l-41.2-28.05c-2.69-1.81-4.14-4.02-4.72-7.21l-6.73-34.93c-.28-1.4-.96-2.85-1.83-3.99L220.19 95.56c-1.79-2.32-4.59-4.33-7.34-5.34-4.01-1.48-8.27.52-10.49 3.86-2.3 3.47-2.28 7.93.35 11.58l23.82 32.73 20.44 28.23c1.3 1.88 2.07 5.06 1.45 7.16-1.38 4.63-7.47 4.66-10.72.23l-28.5-39.06-38.27-52.34c-1.57-2.12-3.78-4.07-6.13-5.22-3.93-1.93-8.48-.63-11.28 2.48-2.95 3.28-3.55 7.87-1.39 11.84.89 1.64 2.04 3.14 3.13 4.66l61.09 84.41c3.71 5.12 3.84 8.72.43 11.07-3.29 2.27-6.51 1.01-10.09-3.95L130.25 82.22c-2.35-3.25-5.03-5.93-9.2-6.45-5.2-.65-9.44 1.17-12.15 5.67-2.88 4.77-2.33 9.52.93 14.01l44.89 61.9 30.38 41.86c1.87 2.57 2.45 5.22.44 7.94-1.7 2.3-4.2 2.98-6.67 1.93-1.59-.68-3-2.2-4.06-3.66l-49.76-68.55-16.06-22.15c-2.54-3.53-5.78-5.8-10.25-6.09-5.05-.33-9.14 1.36-11.71 5.82-2.54 4.41-2.31 8.9.55 13.08l20.23 29.29 74.86 108.16c.36.51.68 1.05 1.06 1.55 2.1 2.73 2.95 5.62.53 8.53-2.27 2.74-5.08 2.46-8.16 1.22-13.82-5.56-28-10.09-42.83-11.78-8.52-.97-17.24-1.43-25.76-.74-12.05.98-17.63 6.52-20.61 18.29-.7 2.76-1.08 5.61-1.65 8.66l18.9 1.57c29.83 2.35 57.74 11.16 84.01 25.26 19.3 10.37 39.54 12.35 60.65 7.55 3.5-.8 6.19-.19 8.83 2.38l46.64 45.09c3.5 3.39 3.92 6.72 1.31 9.49-2.68 2.85-6.12 2.52-9.77-1l-42.04-40.68c-2.36-2.31-4.44-3.04-7.86-2.44-21.41 3.77-41.94 1.16-61.53-8.77-10.22-5.18-20.73-9.87-31.36-14.16-17.55-7.08-36.17-9.41-54.84-11.22-5.84-.57-11.73-.64-17.59-.96-5.24-.29-7.18-2.22-7.25-7.46-.16-12.2 2.39-23.61 10.48-33.18 5.34-6.33 12.35-9.44 20.58-10.21 19.93-1.88 39.35.59 59.05 6.94l-2.37-3.76-82.6-119.67c-9.34-13.54-5.36-30.17 8.82-36.74 2.78-1.29 5.9-1.85 9.13-2.83-1.98-6.7-1.95-13.51 1.66-20 2.51-4.51 6.07-7.89 10.72-10.11 11.02-5.27 19.98-2.42 31.8 9.82 3.51-2.93 6.62-6.46 10.5-8.59 9.45-5.18 21.25-2.34 27.93 6.25 3.98 5.12 7.71 10.44 11.71 15.88.42-.46.75-.76 1-1.12 9.38-13.42 27.22-13.94 37.24-.97l38.57 50.25 58.23 75.8c3.72 4.78 6.15 9.74 7.1 15.73 1.49 9.36 3.39 18.67 5.38 27.94.37 1.71 1.64 3.64 3.08 4.64l37.7 25.86c1.8 1.24 3.29 2.94 4.93 4.42-.04 1.29-.04 2.54-.04 3.79zM180.7 0c11.31 4.57 11.5 4.72 18.2 14.21 5.61-4.66 12.06-6.81 19.36-5.9 5.11.64 9.54 2.84 13.3 6.34 8.91 8.29 9.54 18.14 2.11 33.92 1.7.42 3.4.73 5.03 1.26 11.41 3.69 17.85 16.95 13.56 28.56-1.36 3.69-3.63 7.1-5.83 10.4-1.87 2.8-5.3 3.24-7.97 1.53-2.63-1.68-3.54-4.96-2-7.9 1.04-1.99 2.41-3.79 3.51-5.75 2.9-5.21 1.69-11.15-2.85-14.35-4.25-3-10.22-1.92-14.06 2.59-.89 1.04-1.57 2.25-2.38 3.35-2.28 3.11-5.64 3.92-8.47 2.06-2.81-1.85-3.54-5.31-1.52-8.56l14.06-22.13c2.03-3.18 3.12-6.54 2.08-10.31-1.35-4.9-4.53-8.09-9.52-8.99-5.29-.95-9.63.96-12.56 5.52l-17.5 27.49c-.54.84-1.03 1.72-1.64 2.51-2.17 2.85-5.5 3.52-8.26 1.7-2.76-1.81-3.58-5.14-1.69-8.24 3.51-5.75 7.48-11.25 10.7-17.15 1.47-2.69 2.38-6.14 2.22-9.17-.28-5.45-4.41-9.54-9.52-10.73-4.84-1.13-9.76.89-12.91 5.55L142.8 52.67c-.63.93-1.21 1.9-1.94 2.76-2.21 2.6-5.44 3.12-8.03 1.35-2.56-1.74-3.34-5.03-1.79-7.97.64-1.21 1.48-2.31 2.24-3.45l19.69-29.64c4.75-7.6 10.51-13.54 19.48-15.73l8.25.01zm203.25 232.5c-1.86 2.77-4.17 4.75-7.76 3.65-3.42-1.05-4.09-3.87-4.43-7.05-1.53-14.24-5.14-27.66-15.05-38.69-2.53-2.82-2.1-6.53.46-8.68 2.71-2.28 6.2-1.82 8.88 1.28 8.98 10.35 14.28 22.39 16.37 35.9.4 2.55 1 5.07 1.51 7.6l.02 5.99zM14.07 75.95l7.54 26.15c7.22 26.15 8.05 52.74 5.05 79.52-2.32 20.66 2.71 39.43 14.12 56.5 3.06 4.57 3.62 8.28 1.41 13.42l-23.6 57.05c-.33.81-.65 1.63-1.07 2.39-1.74 3.15-4.9 4.27-7.93 2.85-2.82-1.32-4.17-4.38-2.93-7.56 2.76-7.09 5.71-14.1 8.61-21.14l14.76-35.6c1.03-2.42.96-4.17-.47-6.47-11.89-19.15-16.97-39.79-14.98-62.5 1.33-15.13 1.78-30.5.72-45.62-1.2-17.05-5.82-33.65-11.23-49.91L.44 74.41c-1.13-3.54-.11-6.22 3.28-7.73 10.51-4.69 21.44-6.69 32.85-4.04 8.74 2.03 15.21 7.21 19.64 15 8.81 15.48 12.87 32.38 14.91 49.86.78 6.69 1.15 13.44 1.49 20.17.22 4.34-2.21 7.15-5.8 7.26-3.61.1-5.97-2.57-6.15-6.95-.78-18.92-3.04-37.57-10.38-55.26-.91-2.19-2.06-4.27-2.99-6.44-6.22-14.43-21.75-14.99-33.22-10.33zm279.14 46.33c-18.17-.05-32.87-14.89-32.73-33.03.14-17.99 14.89-32.44 32.99-32.34 18.03.1 32.65 14.84 32.55 32.81-.1 18.01-14.81 32.61-32.81 32.56zm.02-53.36c-11.47.03-20.69 9.22-20.75 20.69-.05 11.32 9.39 20.71 20.77 20.66 11.5-.05 20.67-9.2 20.77-20.7.09-11.27-9.37-20.68-20.79-20.65zM61.4 182.43c.5-10.67 6.33-20.76 18.05-27.24 3.92-2.17 7.33-1.45 9.12 1.66 1.9 3.29.65 6.5-3.45 8.9-8.5 4.97-12.87 13.52-11.53 22.54 1.34 9.04 7.93 16.47 17.05 18.18 3.67.69 7.68.18 11.43-.43 4.39-.71 7.34.4 8.34 4 .98 3.54-.94 6.32-5.25 7.61-.6.18-1.19.38-1.8.52-5.29 1.16-6.12 2.49-4.2 7.56 1.78 4.67 5.18 7.62 10.21 8.29 5.15.68 9.31-1.17 12.35-5.41.29-.4.51-.85.76-1.29 2.62-4.67 5.78-6.11 9.17-4.17 3.31 1.89 3.76 5.58 1.23 10.18-5.36 9.78-16.67 14.81-27.37 12.18-11.23-2.76-19.06-12.34-19.09-23.83-.01-2.76-.65-4.02-3.36-5.03-13.21-4.95-21.68-17.5-21.66-34.22zM101.14 8.17c13.65 0 24.78 11.18 24.71 24.84-.06 13.59-11.31 24.73-24.94 24.7s-24.69-11.23-24.6-24.92c.09-13.83 10.98-24.63 24.83-24.62zM88.32 32.83c0 7.17 5.66 12.89 12.74 12.86 7.02-.03 12.86-5.93 12.78-12.92-.08-7.04-5.9-12.67-13.04-12.6-6.98.07-12.48 5.65-12.48 12.66zm276.17 206.63c.3 3.66-1.67 6.26-4.9 6.62-3.38.37-5.95-1.46-6.67-5.11-.87-4.4-1.52-8.85-2.18-13.29-1.81-12.04-8.81-21.56-15.19-31.37-1.22-1.88-2.7-3.6-3.86-5.52-1.77-2.94-1.11-6.09 1.48-7.99 2.6-1.91 5.98-1.74 8.04.98 12.51 16.53 22.83 34.03 23.28 55.68zM214.42 364.02c-12.88.57-24.6-3.24-35.69-9.37-4-2.21-5.16-5.33-3.43-8.59 1.78-3.37 5.27-4.18 9.3-1.79 12 7.12 24.97 8.79 38.58 7.19a97.74 97.74 0 0 1 7.46-.57c3.94-.15 6.59 1.87 6.99 5.2.41 3.38-2.01 6.27-6.05 6.68-5.71.57-11.44.85-17.16 1.25zm-8.83 20.07c-8.72-.38-16.04-2.24-22.9-5.79-3.24-1.68-4.37-4.84-3.04-7.85 1.38-3.13 4.75-4.57 8.15-2.88 9.15 4.55 18.58 5.15 28.44 3.07 4.85-1.02 8.01 1.07 8.51 4.94.46 3.54-2.09 6.21-6.76 6.9l-12.4 1.61zm-74.33-64.14l-4.9 21.84-1.96 8.35c-.96 3.37-4.06 5.2-7.14 4.45-3.14-.76-5.16-3.77-4.43-7.15l6.72-29.84c.79-3.35 3.67-5.19 6.63-4.75 3.12.45 5.18 3.03 5.08 7.1z"/></svg>